<svg width="94" height="59" viewBox="0 0 94 59" fill="none" xmlns="http://www.w3.org/2000/svg">
<g id="Group 26">
<rect id="Rectangle 68" x="2" y="57.5" width="46" height="80" rx="3.5" transform="rotate(-90 2 57.5)" stroke="#F4931C" stroke-width="3"/>
<g id="Rectangle 69">
<mask id="path-2-inside-1_1080_7597" fill="white">
<path d="M10.5 54C7.73858 54 5.5 51.7614 5.5 49L5.5 5L83.5 5C86.2614 5 88.5 7.23857 88.5 10V54L10.5 54Z"/>
</mask>
<path d="M5.5 54L5.5 5L5.5 54ZM83.5 2C87.9183 2 91.5 5.58172 91.5 10V54H85.5V10C85.5 8.89543 84.6046 8 83.5 8V2ZM88.5 54L5.5 54L88.5 54ZM5.5 2L83.5 2C87.9183 2 91.5 5.58172 91.5 10H85.5C85.5 8.89543 84.6046 8 83.5 8L5.5 8L5.5 2Z" fill="#F4931C" mask="url(#path-2-inside-1_1080_7597)"/>
</g>
<g id="Rectangle 70">
<mask id="path-4-inside-2_1080_7597" fill="white">
<path d="M10.5 49L10.5 0L88.5 0C91.2614 0 93.5 2.23857 93.5 5V49L10.5 49Z"/>
</mask>
<path d="M10.5 49L10.5 0L10.5 49ZM88.5 -3C92.9183 -3 96.5 0.581722 96.5 5V49H90.5V5C90.5 3.89543 89.6046 3 88.5 3V-3ZM93.5 49L10.5 49L93.5 49ZM10.5 -3L88.5 -3C92.9183 -3 96.5 0.581722 96.5 5H90.5C90.5 3.89543 89.6046 3 88.5 3L10.5 3V-3Z" fill="#F4931C" mask="url(#path-4-inside-2_1080_7597)"/>
</g>
<circle id="Ellipse 15" cx="42" cy="34.5" r="15" stroke="#F4931C" stroke-width="3"/>
<g id="Rectangle 71">
<mask id="path-7-inside-3_1080_7597" fill="white">
<path d="M68.5 30C65.7386 30 63.5 27.7614 63.5 25V14H74.5C77.2614 14 79.5 16.2386 79.5 19V30H68.5Z"/>
</mask>
<path d="M63.5 30V14V30ZM74.5 11C78.9183 11 82.5 14.5817 82.5 19V30H76.5V19C76.5 17.8954 75.6046 17 74.5 17V11ZM79.5 30H63.5H79.5ZM63.5 11H74.5C78.9183 11 82.5 14.5817 82.5 19H76.5C76.5 17.8954 75.6046 17 74.5 17H63.5V11Z" fill="#F4931C" mask="url(#path-7-inside-3_1080_7597)"/>
</g>
<g id="Rectangle 72">
<mask id="path-9-inside-4_1080_7597" fill="white">
<path d="M20.5 30V14H9.5C6.73858 14 4.5 16.2386 4.5 19V30H20.5Z"/>
</mask>
<path d="M20.5 30V14V30ZM9.5 11C5.08172 11 1.5 14.5817 1.5 19V30H7.5V19C7.5 17.8954 8.39543 17 9.5 17L9.5 11ZM4.5 30H20.5H4.5ZM20.5 11H9.5C5.08172 11 1.5 14.5817 1.5 19H7.5C7.5 17.8954 8.39543 17 9.5 17H20.5V11Z" fill="#F4931C" mask="url(#path-9-inside-4_1080_7597)"/>
</g>
<g id="Rectangle 73">
<mask id="path-11-inside-5_1080_7597" fill="white">
<path d="M15.5 39C18.2614 39 20.5 41.2386 20.5 44V55H9.5C6.73858 55 4.5 52.7614 4.5 50V39H15.5Z"/>
</mask>
<path d="M20.5 39V55V39ZM9.5 58C5.08172 58 1.5 54.4183 1.5 50V39H7.5V50C7.5 51.1046 8.39543 52 9.5 52L9.5 58ZM4.5 39H20.5H4.5ZM20.5 58H9.5C5.08172 58 1.5 54.4183 1.5 50H7.5C7.5 51.1046 8.39543 52 9.5 52H20.5V58Z" fill="#F4931C" mask="url(#path-11-inside-5_1080_7597)"/>
</g>
<g id="Rectangle 74">
<mask id="path-13-inside-6_1080_7597" fill="white">
<path d="M68.5 39C65.7386 39 63.5 41.2386 63.5 44V55H74.5C77.2614 55 79.5 52.7614 79.5 50V39H68.5Z"/>
</mask>
<path d="M63.5 39V55V39ZM74.5 58C78.9183 58 82.5 54.4183 82.5 50V39H76.5V50C76.5 51.1046 75.6046 52 74.5 52V58ZM79.5 39H63.5H79.5ZM63.5 58H74.5C78.9183 58 82.5 54.4183 82.5 50H76.5C76.5 51.1046 75.6046 52 74.5 52H63.5V58Z" fill="#F4931C" mask="url(#path-13-inside-6_1080_7597)"/>
</g>
</g>
</svg>
